<svg xmlns="http://www.w3.org/2000/svg" viewBox="0 0 256 256" width="256" height="256">
  <rect width="256" height="256" rx="48" fill="#7c3aed"/>
  <g transform="translate(28, 28) scale(0.78)">
    <path d="M241.9,86.91l-104-56a16,16,0,0,0-15.18,0l-104,56a16,16,0,0,0,0,28.18l104,56a16,16,0,0,0,15.18,0l93-50.08V152a8,8,0,0,0,16,0V93.59A16.08,16.08,0,0,0,241.9,86.91Z" fill="#ffffff"/>
    <path d="M208,126v42.66c0,25.68-35.82,47.34-80,47.34s-80-21.66-80-47.34V126a8,8,0,0,0-16,0v42.66c0,35.43,43.23,63.34,96,63.34s96-27.91,96-63.34V126a8,8,0,0,0-16,0Z" fill="#ffffff"/>
  </g>
</svg>
